<svg width="27" height="26" viewBox="0 0 27 26" fill="none" xmlns="http://www.w3.org/2000/svg">
<path d="M16.0256 0.551261C15.9474 0.509862 15.8601 0.49295 15.7735 0.502454C15.6869 0.511958 15.6045 0.547496 15.5357 0.605011L7.3052 7.50001H1.89284C1.52344 7.50001 1.16916 7.65805 0.907954 7.93935C0.646746 8.22065 0.5 8.60219 0.5 9.00001V17C0.5 17.3978 0.646746 17.7794 0.907954 18.0607C1.16916 18.342 1.52344 18.5 1.89284 18.5H7.3052L15.5357 25.395C15.6177 25.4627 15.718 25.4996 15.8213 25.5C15.8921 25.5003 15.9621 25.4827 16.0256 25.4488C16.1035 25.4076 16.1692 25.3438 16.2152 25.2644C16.2611 25.1851 16.2855 25.0935 16.2856 25V1.00001C16.2855 0.906513 16.2611 0.814902 16.2152 0.735579C16.1692 0.656256 16.1035 0.592399 16.0256 0.551261ZM15.357 23.9775L7.74975 17.6025C7.66753 17.5357 7.56724 17.4996 7.46422 17.5H1.89284C1.76971 17.5 1.65162 17.4473 1.56455 17.3536C1.47748 17.2598 1.42856 17.1326 1.42856 17V9.00001C1.42856 8.8674 1.47748 8.74022 1.56455 8.64646C1.65162 8.55269 1.76971 8.50001 1.89284 8.50001H7.46422C7.56751 8.49966 7.66783 8.46277 7.74975 8.39501L15.357 2.02001V23.9775ZM26.3639 15.6463C26.4511 15.7401 26.5 15.8673 26.5 16C26.5 16.1327 26.4511 16.2599 26.3639 16.3538C26.2768 16.4476 26.1587 16.5003 26.0355 16.5003C25.9123 16.5003 25.7941 16.4476 25.707 16.3538L23.2498 13.7075L20.7926 16.3538C20.7054 16.4476 20.5873 16.5003 20.4641 16.5003C20.3409 16.5003 20.2227 16.4476 20.1356 16.3538C20.0485 16.2599 19.9995 16.1327 19.9995 16C19.9995 15.8673 20.0485 15.7401 20.1356 15.6463L22.5928 13L20.1356 10.3538C20.0485 10.2599 19.9995 10.1327 19.9995 10C19.9995 9.86733 20.0485 9.74008 20.1356 9.64626C20.2227 9.55244 20.3409 9.49973 20.4641 9.49973C20.5873 9.49973 20.7054 9.55244 20.7926 9.64626L23.2498 12.2925L25.707 9.64626C25.7501 9.59981 25.8013 9.56296 25.8577 9.53781C25.914 9.51267 25.9745 9.49973 26.0355 9.49973C26.0965 9.49973 26.1569 9.51267 26.2132 9.53781C26.2696 9.56296 26.3208 9.59981 26.3639 9.64626C26.4071 9.69272 26.4413 9.74787 26.4646 9.80856C26.488 9.86926 26.5 9.93431 26.5 10C26.5 10.0657 26.488 10.1308 26.4646 10.1915C26.4413 10.2522 26.4071 10.3073 26.3639 10.3538L23.9067 13L26.3639 15.6463Z" fill="#EACECE"/>
</svg>
