<svg width="26" height="25" viewBox="0 0 26 25" fill="none" xmlns="http://www.w3.org/2000/svg">
<path d="M16.72 0.0513826C16.6359 0.00998419 16.5418 -0.00692826 16.4485 0.00257591C16.3553 0.0120801 16.2665 0.047618 16.1925 0.105133L7.32875 7.00013H1.5C1.10218 7.00013 0.720644 7.15817 0.43934 7.43947C0.158035 7.72078 0 8.10231 0 8.50013V16.5001C0 16.898 0.158035 17.2795 0.43934 17.5608C0.720644 17.8421 1.10218 18.0001 1.5 18.0001H7.32875L16.1925 24.8951C16.2808 24.9628 16.3888 24.9997 16.5 25.0001C16.5763 25.0004 16.6517 24.9829 16.72 24.9489C16.804 24.9077 16.8747 24.8439 16.9242 24.7646C16.9737 24.6852 17 24.5936 17 24.5001V0.500133C17 0.406635 16.9737 0.315024 16.9242 0.235701C16.8747 0.156378 16.804 0.0925215 16.72 0.0513826ZM16 23.4776L7.8075 17.1026C7.71896 17.0358 7.61095 16.9998 7.5 17.0001H1.5C1.36739 17.0001 1.24021 16.9475 1.14645 16.8537C1.05268 16.7599 1 16.6327 1 16.5001V8.50013C1 8.36752 1.05268 8.24035 1.14645 8.14658C1.24021 8.05281 1.36739 8.00013 1.5 8.00013H7.5C7.61124 7.99978 7.71928 7.96289 7.8075 7.89513L16 1.52013V23.4776ZM22 9.50013V15.5001C22 15.6327 21.9473 15.7599 21.8536 15.8537C21.7598 15.9475 21.6326 16.0001 21.5 16.0001C21.3674 16.0001 21.2402 15.9475 21.1464 15.8537C21.0527 15.7599 21 15.6327 21 15.5001V9.50013C21 9.36752 21.0527 9.24035 21.1464 9.14658C21.2402 9.05281 21.3674 9.00013 21.5 9.00013C21.6326 9.00013 21.7598 9.05281 21.8536 9.14658C21.9473 9.24035 22 9.36752 22 9.50013ZM26 7.50013V17.5001C26 17.6327 25.9473 17.7599 25.8536 17.8537C25.7598 17.9475 25.6326 18.0001 25.5 18.0001C25.3674 18.0001 25.2402 17.9475 25.1464 17.8537C25.0527 17.7599 25 17.6327 25 17.5001V7.50013C25 7.36752 25.0527 7.24035 25.1464 7.14658C25.2402 7.05281 25.3674 7.00013 25.5 7.00013C25.6326 7.00013 25.7598 7.05281 25.8536 7.14658C25.9473 7.24035 26 7.36752 26 7.50013Z" fill="#EACECE"/>
</svg>
